Gutter.King.2010.DVDRip.XviD.FEEL-FREE

Genre:Action | Thriller
Language:English
IMDb:http://www.imdb.com/title/tt1286746/

General
Complete name : Gutter.King.2010.DVDRip.XviD.FEEL-FREE
Format : AVI
Format/Info : Audio Video Interleave
File size : 892 MiB
Duration : 1h 36mn
Overall bit rate : 1 297 Kbps

Video
ID : 0
Format : MPEG-4 Visual
Codec ID : DIV3
Codec ID/Hint : DivX 3 Low
Duration : 1h 36mn
Bit rate : 1 157 Kbps
Width : 704 pixels
Height : 304 pixels
Display aspect ratio : 2.35:1
Frame rate : 25.000 fps
Resolution : 24 bits
Bits/(Pixel*Frame) : 0.216
Stream size : 796 MiB (89%)

Audio
ID : 1
Format : MPEG Audio
Format version : Version 1
Format profile : Layer 3
Format settings, Mode : Joint stereo / MS Stereo
Codec ID : 55
Codec ID/Hint : MP3
Duration : 1h 36mn
Bit rate mode : Constant
Bit rate : 128 Kbps
Channel(s) : 2 channels
Sampling rate : 44.1 KHz
Resolution : 16 bits
Stream size : 88.0 MiB (10%)
Alignment : Aligned on interleaves
Interleave, duration : 26 ms (0.65 video frame)
Interleave, preload duration : 26 ms
Writing library : LAME3.97

Plot:
Gutter King is an urban coming-of-age fight drama about a tough street kid just released from the Juvenile Department of Corrections...